# xmcd
#
# Track frame offsets: 
#        150
#        29805
#        41675
#        67785
#        78777
#        96907
#        120057
#        144220
#        166600
#        183700
#        202427
#        215745
#        243217
#        260567
#        288457
#
# Disc length: 4026 seconds
#
# Revision: 3
# Processed by: cddbd v1.5.2PL0 Copyright (c) Steve Scherf et al.
# Submitted via: ExactAudioCopy v1.3
#
DISCID=d60fb80f
DTITLE=Various Artist - Blues Story #22
DYEAR=1998
DGENRE=Blues
TTITLE0=Johnny Winter - Third Degree
TTITLE1=Albert Collins - Avalanche
TTITLE2=Lucky Peterson - I Found A Love
TTITLE3=Lonnie Mack - Camp Washinton Chili
TTITLE4=Big Walter Horton and Carey Bell - Christine
TTITLE5=James Cotton - Part Time Love
TTITLE6=Charlie Musselwhite - Blues Got Me Again
TTITLE7=Billy Boy Arnold - Sunday Morning Blues
TTITLE8=Koko Taylor - Voodoo Woman
TTITLE9=Clarence "Gatemouth" Brown - Allogator Eating Dog
TTITLE10=Bob Margolin - Up and In
TTITLE11=Lonnie Brooks - Before You Go
TTITLE12=Little Charlie and The Nightcats - I'm Just Lucky That Way
TTITLE13=Hound Dog Taylor - Sadie
TTITLE14=Corey Harris - Mama Got Worried
EXTD=
EXTT0=
EXTT1=
EXTT2=
EXTT3=
EXTT4=
EXTT5=
EXTT6=
EXTT7=
EXTT8=
EXTT9=
EXTT10=
EXTT11=
EXTT12=
EXTT13=
EXTT14=
PLAYORDER=
